<?xml version="1.0" encoding="UTF-8" standalone="no"?>
<!DOCTYPE svg PUBLIC "-//W3C//DTD SVG 1.1//EN" "http://www.w3.org/Graphics/SVG/1.1/DTD/svg11.dtd">
<!-- 由 Microsoft Visio, SVG Export 生成 mega.svg Page-1 -->
<svg xmlns="http://www.w3.org/2000/svg" xmlns:xlink="http://www.w3.org/1999/xlink" xmlns:ev="http://www.w3.org/2001/xml-events"
		width="8.84151in" height="4.36037in" viewBox="0 0 636.588 313.947" xml:space="preserve" color-interpolation-filters="sRGB"
		class="st7">
	<style type="text/css">
	<![CDATA[
		.st1 {visibility:visible}
		.st2 {fill:#5b9bd5;fill-opacity:0.22;filter:url(#filter_2);stroke:#5b9bd5;stroke-opacity:0.22}
		.st3 {fill:#5b9bd5;stroke:#c7c8c8;stroke-width:0.25}
		.st4 {fill:#feffff;font-family:Calibri;font-size:0.833336em}
		.st5 {marker-end:url(#mrkr4-12);stroke:#5b9bd5;stroke-linecap:round;stroke-linejoin:round;stroke-width:1}
		.st6 {fill:#5b9bd5;fill-opacity:1;stroke:#5b9bd5;stroke-opacity:1;stroke-width:0.28409090909091}
		.st7 {fill:none;fill-rule:evenodd;font-size:12px;overflow:visible;stroke-linecap:square;stroke-miterlimit:3}
	]]>
	</style>

	<defs id="Markers">
		<g id="lend4">
			<path d="M 2 1 L 0 0 L 2 -1 L 2 1 " style="stroke:none"/>
		</g>
		<marker id="mrkr4-12" class="st6" refX="-7.04" orient="auto" markerUnits="strokeWidth" overflow="visible">
			<use xlink:href="#lend4" transform="scale(-3.52,-3.52) "/>
		</marker>
	</defs>
	<defs id="Filters">
		<filter id="filter_2">
			<feGaussianBlur stdDeviation="2"/>
		</filter>
	</defs>
	<g>
		<title>页-1</title>
		<g id="shape36-1" transform="translate(21.0294,-192.406)">
			<title>矩形</title>
			<desc>SM</desc>
			<g id="shadow36-2" transform="matrix(1,0,0,1,0.345598,1.97279)" class="st1">
				<rect x="0" y="228.907" width="113.386" height="85.0394" class="st2"/>
			</g>
			<rect x="0" y="228.907" width="113.386" height="85.0394" class="st3"/>
			<text x="50.12" y="274.43" class="st4">SM</text>		</g>
		<g id="shape37-7" transform="translate(70.6357,-192.406)">
			<title>动态连接线</title>
			<path d="M7.09 313.95 L7.09 324.58 L74.41 324.58 L74.41 218.28 L7.09 218.28 L7.09 221.87" class="st5"/>
		</g>
		<g id="shape40-13" transform="translate(247.801,-192.406)">
			<title>矩形.40</title>
			<desc>SM</desc>
			<g id="shadow40-14" transform="matrix(1,0,0,1,0.345598,1.97279)" class="st1">
				<rect x="0" y="228.907" width="113.386" height="85.0394" class="st2"/>
			</g>
			<rect x="0" y="228.907" width="113.386" height="85.0394" class="st3"/>
			<text x="50.12" y="274.43" class="st4">SM</text>		</g>
		<g id="shape41-19" transform="translate(474.573,-192.406)">
			<title>矩形.41</title>
			<desc>SM</desc>
			<g id="shadow41-20" transform="matrix(1,0,0,1,0.345598,1.97279)" class="st1">
				<rect x="0" y="228.907" width="113.386" height="85.0394" class="st2"/>
			</g>
			<rect x="0" y="228.907" width="113.386" height="85.0394" class="st3"/>
			<text x="50.12" y="274.43" class="st4">SM</text>		</g>
		<g id="shape42-25" transform="translate(21.0294,-36.5009)">
			<title>矩形.42</title>
			<desc>SM</desc>
			<g id="shadow42-26" transform="matrix(1,0,0,1,0.345598,1.97279)" class="st1">
				<rect x="0" y="228.907" width="113.386" height="85.0394" class="st2"/>
			</g>
			<rect x="0" y="228.907" width="113.386" height="85.0394" class="st3"/>
			<text x="50.12" y="274.43" class="st4">SM</text>		</g>
		<g id="shape43-31" transform="translate(247.801,-36.5009)">
			<title>矩形.43</title>
			<desc>SM</desc>
			<g id="shadow43-32" transform="matrix(1,0,0,1,0.345598,1.97279)" class="st1">
				<rect x="0" y="228.907" width="113.386" height="85.0394" class="st2"/>
			</g>
			<rect x="0" y="228.907" width="113.386" height="85.0394" class="st3"/>
			<text x="50.12" y="274.43" class="st4">SM</text>		</g>
		<g id="shape44-37" transform="translate(474.573,-36.5009)">
			<title>矩形.44</title>
			<desc>SM</desc>
			<g id="shadow44-38" transform="matrix(1,0,0,1,0.345598,1.97279)" class="st1">
				<rect x="0" y="228.907" width="113.386" height="85.0394" class="st2"/>
			</g>
			<rect x="0" y="228.907" width="113.386" height="85.0394" class="st3"/>
			<text x="50.12" y="274.43" class="st4">SM</text>		</g>
		<g id="shape45-43" transform="translate(297.407,-192.406)">
			<title>动态连接线.45</title>
			<path d="M7.09 313.95 L7.09 324.58 L74.41 324.58 L74.41 218.28 L7.09 218.28 L7.09 221.87" class="st5"/>
		</g>
		<g id="shape46-48" transform="translate(524.179,-192.406)">
			<title>动态连接线.46</title>
			<path d="M7.09 313.95 L7.09 324.58 L74.41 324.58 L74.41 218.28 L7.09 218.28 L7.09 221.87" class="st5"/>
		</g>
		<g id="shape47-53" transform="translate(524.179,-36.5009)">
			<title>动态连接线.47</title>
			<path d="M7.09 313.95 L7.09 324.58 L74.41 324.58 L74.41 218.28 L7.09 218.28 L7.09 221.87" class="st5"/>
		</g>
		<g id="shape48-58" transform="translate(297.407,-36.5009)">
			<title>动态连接线.48</title>
			<path d="M7.09 313.95 L7.09 324.58 L74.41 324.58 L74.41 218.28 L7.09 218.28 L7.09 221.87" class="st5"/>
		</g>
		<g id="shape49-63" transform="translate(70.6357,-36.5009)">
			<title>动态连接线.49</title>
			<path d="M7.09 313.95 L7.09 324.58 L74.41 324.58 L74.41 218.28 L7.09 218.28 L7.09 221.87" class="st5"/>
		</g>
		<g id="shape55-68" transform="translate(141.804,-141.574)">
			<title>矩形.55</title>
			<desc>task</desc>
			<g id="shadow55-69" transform="matrix(1,0,0,1,0.345598,1.97279)" class="st1">
				<rect x="0" y="282.509" width="41.9163" height="31.4372" class="st2"/>
			</g>
			<rect x="0" y="282.509" width="41.9163" height="31.4372" class="st3"/>
			<text x="12.66" y="301.23" class="st4">task</text>		</g>
		<g id="shape57-74" transform="translate(184.554,-141.574)">
			<title>矩形.57</title>
			<desc>task</desc>
			<g id="shadow57-75" transform="matrix(1,0,0,1,0.345598,1.97279)" class="st1">
				<rect x="0" y="282.509" width="41.9163" height="31.4372" class="st2"/>
			</g>
			<rect x="0" y="282.509" width="41.9163" height="31.4372" class="st3"/>
			<text x="12.66" y="301.23" class="st4">task</text>		</g>
		<g id="shape58-80" transform="translate(227.304,-141.574)">
			<title>矩形.58</title>
			<desc>task</desc>
			<g id="shadow58-81" transform="matrix(1,0,0,1,0.345598,1.97279)" class="st1">
				<rect x="0" y="282.509" width="41.9163" height="31.4372" class="st2"/>
			</g>
			<rect x="0" y="282.509" width="41.9163" height="31.4372" class="st3"/>
			<text x="12.66" y="301.23" class="st4">task</text>		</g>
		<g id="shape59-86" transform="translate(270.054,-141.574)">
			<title>矩形.59</title>
			<desc>task</desc>
			<g id="shadow59-87" transform="matrix(1,0,0,1,0.345598,1.97279)" class="st1">
				<rect x="0" y="282.509" width="41.9163" height="31.4372" class="st2"/>
			</g>
			<rect x="0" y="282.509" width="41.9163" height="31.4372" class="st3"/>
			<text x="12.66" y="301.23" class="st4">task</text>		</g>
		<g id="shape60-92" transform="translate(312.804,-141.574)">
			<title>矩形.60</title>
			<desc>task</desc>
			<g id="shadow60-93" transform="matrix(1,0,0,1,0.345598,1.97279)" class="st1">
				<rect x="0" y="282.509" width="41.9163" height="31.4372" class="st2"/>
			</g>
			<rect x="0" y="282.509" width="41.9163" height="31.4372" class="st3"/>
			<text x="12.66" y="301.23" class="st4">task</text>		</g>
		<g id="shape61-98" transform="translate(355.554,-141.574)">
			<title>矩形.61</title>
			<desc>task</desc>
			<g id="shadow61-99" transform="matrix(1,0,0,1,0.345598,1.97279)" class="st1">
				<rect x="0" y="282.509" width="41.9163" height="31.4372" class="st2"/>
			</g>
			<rect x="0" y="282.509" width="41.9163" height="31.4372" class="st3"/>
			<text x="12.66" y="301.23" class="st4">task</text>		</g>
		<g id="shape62-104" transform="translate(398.304,-141.574)">
			<title>矩形.62</title>
			<desc>task</desc>
			<g id="shadow62-105" transform="matrix(1,0,0,1,0.345598,1.97279)" class="st1">
				<rect x="0" y="282.509" width="41.9163" height="31.4372" class="st2"/>
			</g>
			<rect x="0" y="282.509" width="41.9163" height="31.4372" class="st3"/>
			<text x="12.66" y="301.23" class="st4">task</text>		</g>
		<g id="shape63-110" transform="translate(441.054,-141.574)">
			<title>矩形.63</title>
			<desc>task</desc>
			<g id="shadow63-111" transform="matrix(1,0,0,1,0.345598,1.97279)" class="st1">
				<rect x="0" y="282.509" width="41.9163" height="31.4372" class="st2"/>
			</g>
			<rect x="0" y="282.509" width="41.9163" height="31.4372" class="st3"/>
			<text x="12.66" y="301.23" class="st4">task</text>		</g>
		<g id="shape64-116" transform="translate(162.762,-141.574)">
			<title>动态连接线.64</title>
			<path d="M0 313.95 L0 376.5 L78 376.5" class="st5"/>
		</g>
		<g id="shape65-121" transform="translate(205.512,-173.011)">
			<title>动态连接线.65</title>
			<path d="M0 313.95 L0 252.03 L35.25 252.03" class="st5"/>
		</g>
		<g id="shape66-126" transform="translate(474.573,-234.926)">
			<title>动态连接线.66</title>
			<path d="M0 313.95 L-55.31 313.95 L-55.31 368.82" class="st5"/>
		</g>
		<g id="shape67-131" transform="translate(475.379,-79.0206)">
			<title>动态连接线.67</title>
			<path d="M-0.81 313.95 L-13.37 313.95 L-13.37 258.43" class="st5"/>
		</g>
	</g>
</svg>
